<svg width="500" height="105" fill="none" xmlns="http://www.w3.org/2000/svg"><path d="M489.992 59.354c-.244 1.017-.666 1.89-1.267 2.62-.601.732-1.411 1.306-2.428 1.72-1.017.416-2.298.624-3.845.624-1.548 0-2.83-.208-3.846-.624-1.017-.414-1.826-.988-2.428-1.72-.602-.73-1.017-1.603-1.247-2.62-.229-1.017-.344-2.141-.344-3.373 0-1.232.115-2.356.344-3.373.23-1.017.645-1.883 1.247-2.599.602-.718 1.411-1.276 2.428-1.677 1.016-.4 2.298-.601 3.846-.601 1.547 0 2.828.202 3.845.601 1.017.401 1.827.96 2.428 1.677.601.716 1.023 1.582 1.267 2.6.243 1.016.366 2.14.366 3.372 0 1.232-.123 2.356-.366 3.373Zm9.505-30.908c-.337-.276-.74-.413-1.213-.413h-6.362c-1.01 0-1.514.413-1.514 1.236v12.056c-2.444-1.012-5.961-1.596-7.957-1.596-3.266 0-6.036.35-8.309 1.052-2.274.702-4.135 1.732-5.585 3.09-1.449 1.358-2.503 3.036-3.158 5.035-.657 2-.985 4.28-.985 6.843 0 2.595.328 4.89.985 6.89.655 1.998 1.709 3.678 3.158 5.035 1.45 1.359 3.311 2.387 5.585 3.09 2.273.701 5.043 1.084 8.309 1.051 2.832-.025 5.716-.851 7.957-2.231v.922c0 .825.504 1.236 1.514 1.236h6.362c.473 0 .876-.137 1.213-.411.336-.276.503-.596.503-.962V29.406c0-.366-.167-.685-.503-.96ZM428.808 71.11c.321.275.715.413 1.187.413h6.413c.47 0 .84-.106 1.11-.32.27-.214.405-.519.405-.916v-.385a3.958 3.958 0 0 1-.024-.452V51.977a4.417 4.417 0 0 1 4.405-4.404h5.25a4.418 4.418 0 0 1 4.405 4.404v18.172c0 .367.169.688.505.962.336.274.74.412 1.212.412h6.362c1.01 0 1.515-.412 1.515-1.236l.101-23.068h-.056v-.105c0-4.133-4.686-7.515-10.415-7.515h-12.422c-5.729 0-10.416 3.382-10.416 7.515v.105h-.017v22.93c0 .367.16.688.48.962ZM424.752 40.01c-.321-.273-.715-.412-1.186-.412h-6.413c-.471 0-.841.108-1.11.32-.27.214-.406.52-.406.916v.386c.016.148.024.3.024.452v17.473a4.417 4.417 0 0 1-4.404 4.404h-5.252a4.417 4.417 0 0 1-4.404-4.404V40.972c0-.367-.168-.687-.504-.961-.336-.275-.74-.413-1.212-.413h-6.362c-1.01 0-1.516.413-1.516 1.236l-.1 23.068h.055v.106c0 4.133 4.687 7.516 10.416 7.516h12.421c5.73 0 10.416-3.383 10.416-7.516v-.106h.017v-22.93c0-.367-.159-.687-.48-.961ZM379.277 59.354c-.244 1.017-.666 1.89-1.267 2.62-.601.732-1.411 1.306-2.428 1.72-1.017.416-2.298.624-3.845.624-1.548 0-2.83-.208-3.846-.625-1.017-.413-1.826-.987-2.428-1.719-.602-.73-1.017-1.603-1.247-2.62-.229-1.017-.344-2.141-.344-3.373 0-1.232.115-2.356.344-3.373.23-1.017.645-1.883 1.247-2.599.602-.718 1.411-1.276 2.428-1.677 1.016-.4 2.298-.601 3.846-.601 1.547 0 2.828.202 3.845.601 1.017.401 1.827.96 2.428 1.677.601.716 1.023 1.582 1.267 2.599.243 1.017.366 2.141.366 3.373 0 1.232-.123 2.356-.366 3.373Zm9.509-10.448c-.656-1.999-1.71-3.677-3.158-5.034-1.451-1.36-3.319-2.389-5.608-3.091-2.289-.702-5.051-1.054-8.284-1.054-3.266 0-6.036.352-8.309 1.054-2.274.702-4.135 1.732-5.585 3.09-1.449 1.358-2.503 3.036-3.158 5.035-.657 2-.985 4.28-.985 6.843 0 2.594.328 4.89.985 6.89.655 1.998 1.709 3.678 3.158 5.035 1.45 1.359 3.311 2.387 5.585 3.09 2.273.701 5.043 1.051 8.309 1.051 3.233 0 5.995-.35 8.284-1.052 2.289-.702 4.157-1.73 5.608-3.09 1.448-1.356 2.502-3.036 3.158-5.035.656-1.998.983-4.295.983-6.889 0-2.563-.327-4.843-.983-6.843ZM338.744 60.162c0-8.367-32.629-2.979-32.629-18.89 0-8.874 10.794-13.058 21.089-13.058 11.455 0 21.783 3.818 22.474 13.336a.394.394 0 0 1-.394.42h-11.287a.394.394 0 0 1-.386-.328c-.781-4.244-4.168-5.63-10.242-5.63-3.486 0-8.385 1.268-8.385 4.5 0 7.67 32.628 2.155 32.628 18.573 0 10.142-11.871 13.88-23.413 13.88-12.293 0-23.533-4.57-23.902-14.807a.394.394 0 0 1 .394-.405h11.859c.204 0 .368.156.39.357.55 4.886 5.758 7.123 11.758 7.123 3.901 0 10.046-1.205 10.046-5.07ZM290.747 59.354c-.245 1.017-.667 1.89-1.267 2.62-.602.732-1.411 1.306-2.428 1.72-1.017.416-2.3.624-3.845.624-1.548 0-2.831-.208-3.847-.624-1.017-.414-1.826-.988-2.428-1.72-.601-.73-1.017-1.603-1.247-2.62-.229-1.017-.343-2.141-.343-3.373 0-1.232.114-2.356.343-3.373.23-1.017.646-1.883 1.247-2.599.602-.718 1.411-1.276 2.428-1.677 1.016-.4 2.299-.601 3.847-.601 1.545 0 2.828.202 3.845.601 1.017.401 1.826.96 2.428 1.677.6.716 1.022 1.582 1.267 2.6.243 1.016.365 2.14.365 3.372 0 1.232-.122 2.356-.365 3.373Zm9.504-19.713c-.337-.275-.74-.412-1.213-.412h-6.362c-1.01 0-1.514.412-1.514 1.236v.86c-2.444-1.012-5.961-1.596-7.957-1.596-3.266 0-6.035.35-8.308 1.052-2.274.702-4.136 1.732-5.585 3.09-1.45 1.358-2.503 3.036-3.159 5.035-.656 2-.984 4.28-.984 6.843 0 2.595.328 4.89.984 6.89.656 1.998 1.709 3.678 3.159 5.035 1.449 1.359 3.311 2.387 5.585 3.09 2.273.701 5.042 1.084 8.308 1.051 2.832-.025 5.717-.851 7.957-2.231v.922c0 .825.504 1.236 1.514 1.236h6.362c.473 0 .876-.137 1.213-.411.337-.276.503-.596.503-.962V40.602c0-.366-.166-.687-.503-.96ZM262.629 63.688l-2.594-.038-.017-.014c-2.18 0-4.005-1.695-4.347-3.783V44.027h6.43c.367 0 .687-.168.961-.504.274-.336.413-.74.413-1.212V35.95c0-1.011-.413-1.515-1.236-1.515l-3.43-.05c.033.002-.248.004-3.138.009V29.4c0-.366-.167-.687-.505-.962-.336-.274-.74-.411-1.211-.411h-6.362c-1.01 0-1.515.41-1.515 1.236l-.05 3.477.001 1.642h-4.372c-.366 0-.686.168-.96.504-.276.338-.413.74-.413 1.213v6.362c0 1.009.413 1.515 1.236 1.515l3 .043c.287-.001.766-.003 1.515-.003.008 9.994.018 19.527.018 19.615 0 1.587.671 2.852 1.307 3.73.139.232.388.58.803.985l.031.034h.006c1.462 1.398 4.911 3.407 12.667 3.407l.012-.002 1.655.038c.311 0 .561-.207.794-.493.233-.285.35-.628.35-1.028v-5.328c0-.859-.35-1.287-1.049-1.287ZM216.152 50.009c.602-.717 1.411-1.275 2.428-1.677 1.016-.4 2.298-.602 3.846-.602 1.547 0 2.828.202 3.845.602 1.017.402 1.826.96 2.428 1.677.602.716 1.023 1.583 1.267 2.599.096.397.167.815.225 1.244h-15.495c.053-.43.121-.847.21-1.244.229-1.016.646-1.883 1.246-2.6Zm24.111 8.996c.129-1.028.195-2.11.195-3.256 0-2.562-.327-4.843-.983-6.844-.657-1.997-1.709-3.676-3.158-5.034-1.449-1.359-3.318-2.388-5.608-3.09-2.288-.701-5.051-1.053-8.284-1.053-3.266 0-6.036.352-8.309 1.053-2.274.702-4.135 1.731-5.585 3.09-1.449 1.358-2.503 3.037-3.158 5.034-.657 2-.985 4.282-.985 6.844 0 2.593.328 4.89.985 6.889.655 1.999 1.709 3.678 3.158 5.036 1.45 1.358 3.311 2.387 5.585 3.089 2.273.702 5.043 1.052 8.309 1.052 3.233 0 5.996-.35 8.284-1.052 2.29-.702 4.159-1.73 5.608-3.09a11.37 11.37 0 0 0 2.16-2.764.395.395 0 0 0-.342-.59H222.44v-.003l-.014.001c-1.548 0-2.83-.207-3.846-.624-1.017-.414-1.826-.987-2.428-1.718-.657-.798-1.092-1.767-1.305-2.907l.004-.004c7.712-.001 25.412-.06 25.412-.06ZM200.642 71.51h-10.189c-.217 0-.393-.198-.393-.444V39.127h-.463l-14.419 32.14a.388.388 0 0 1-.349.244h-8.253a.39.39 0 0 1-.349-.243l-14.728-32.669h-.384v32.467c0 .246-.177.445-.393.445h-10.19c-.216 0-.393-.2-.393-.445V29.052c0-.244.177-.445.393-.445h16.984c.148 0 .284.096.352.247l12.719 28.905h.31l12.488-28.902a.392.392 0 0 1 .353-.25h16.904c.217 0 .392.2.392.445v42.014c0 .246-.175.445-.392.445ZM82.114 76.856c0 3.581-2.93 6.51-6.51 6.51-3.58 0-6.508-2.929-6.508-6.51V27.288c0-3.58 2.928-6.51 6.509-6.51 3.58 0 6.509 2.93 6.509 6.51v49.568ZM59.08 60.834c0 3.58-2.928 6.51-6.509 6.51-3.579 0-6.509-2.93-6.509-6.51v-22.53c0-3.582 2.93-6.51 6.51-6.51 3.58 0 6.508 2.928 6.508 6.51v22.53ZM35.05 76.856c0 3.581-2.93 6.51-6.51 6.51-3.58 0-6.51-2.929-6.51-6.51V27.288c0-3.58 2.93-6.51 6.51-6.51 3.58 0 6.51 2.93 6.51 6.51v49.568ZM52.072 0C23.314 0 0 23.314 0 52.072c0 28.76 23.314 52.073 52.072 52.073 28.76 0 52.073-23.314 52.073-52.073C104.145 23.314 80.831 0 52.072 0Z" fill="#fff"/></svg>