<?xml version="1.0" encoding="UTF-8" standalone="no"?>
<!DOCTYPE svg PUBLIC "-//W3C//DTD SVG 1.1//EN" "http://www.w3.org/Graphics/SVG/1.1/DTD/svg11.dtd">
<svg width="100%" height="100%" viewBox="0 0 512 512" version="1.1" xmlns="http://www.w3.org/2000/svg" xmlns:xlink="http://www.w3.org/1999/xlink" xml:space="preserve" xmlns:serif="http://www.serif.com/" style="fill-rule:evenodd;clip-rule:evenodd;stroke-linejoin:round;stroke-miterlimit:2;">
    <path d="M104.967,511.999C104.863,511.999 104.758,511.998 104.654,511.998C66.184,511.788 34.884,480.015 34.884,441.169L34.884,70.058C34.884,44.367 48.274,21.546 70.703,9.017C93.132,-3.514 119.583,-2.954 141.461,10.514L443.861,196.919C464.73,209.767 477.166,232.079 477.116,256.597C477.066,281.117 464.54,303.378 443.609,316.147L224.997,449.999C215.592,455.757 203.302,452.801 197.545,443.397C191.787,433.993 194.743,421.703 204.147,415.945L422.786,282.076C431.925,276.5 437.164,267.19 437.186,256.516C437.208,245.843 432.007,236.512 422.918,230.915L120.517,44.511C111.143,38.74 99.799,38.5 90.178,43.875C80.558,49.25 74.814,59.037 74.814,70.058L74.814,441.17C74.814,459.555 90.355,471.989 104.87,472.068C109.605,472.069 114.95,470.342 120.423,467.004C129.834,461.261 142.121,464.236 147.864,473.649C153.607,483.062 150.631,495.347 141.219,501.09C129.517,508.23 116.989,511.998 104.967,511.999Z" style="fill:rgb(0,240,105);fill-rule:nonzero;"/>
</svg>
